<svg width="75" height="25" viewBox="0 0 75 25" fill="none" xmlns="http://www.w3.org/2000/svg">
<path fill-rule="evenodd" clip-rule="evenodd" d="M24.9376 2H51.8651C51.9771 2 52.0894 2 52.2013 2.00065C52.2958 2.00133 52.3902 2.00238 52.485 2.00495C52.6905 2.01052 52.8981 2.02267 53.1019 2.05922C53.3082 2.09639 53.5005 2.15704 53.6881 2.25252C53.8726 2.34628 54.0409 2.46891 54.1875 2.61525C54.3336 2.76158 54.4562 2.93009 54.5502 3.11465C54.6459 3.30219 54.7066 3.49448 54.7433 3.70122C54.7801 3.90461 54.792 4.11225 54.7976 4.31793C54.8001 4.41235 54.8014 4.50676 54.8018 4.60115C54.8027 4.71334 54.8027 4.82545 54.8027 4.93784V20.0624C54.8027 20.1748 54.8027 20.2867 54.8018 20.3991C54.8014 20.4935 54.8001 20.5879 54.7976 20.6823C54.792 20.8878 54.7801 21.0954 54.7433 21.2988C54.7066 21.5056 54.6459 21.6978 54.5502 21.8854C54.4562 22.0699 54.3336 22.2387 54.1875 22.3848C54.0409 22.5313 53.8726 22.654 53.6881 22.7475C53.5005 22.8432 53.3082 22.9039 53.1019 22.941C52.8981 22.9773 52.6905 22.9897 52.485 22.9953C52.3902 22.9974 52.2958 22.9987 52.2013 22.9991C52.0894 23 51.9771 23 51.8651 23H24.9376C24.8255 23 24.7131 23 24.6012 22.9991C24.5066 22.9987 24.4121 22.9974 24.3177 22.9953C24.1118 22.9897 23.9042 22.9773 23.7008 22.941C23.4942 22.9039 23.302 22.8432 23.1145 22.7475C22.9301 22.654 22.7613 22.5313 22.615 22.3848C22.4687 22.2387 22.3461 22.0699 22.2523 21.8854C22.1568 21.6978 22.0962 21.5056 22.0592 21.2988C22.0225 21.0954 22.0103 20.8878 22.0047 20.6823C22.0022 20.5879 22.0011 20.4935 22.0005 20.3991C21.9999 20.3092 22 20.2196 22 20.1298C22 20.1073 22 20.0849 22 20.0624V4.93784C22 4.91535 22 4.89288 22 4.87041C22 4.78059 21.9999 4.69089 22.0005 4.60115C22.0011 4.50676 22.0022 4.41235 22.0047 4.31793C22.0103 4.11225 22.0225 3.90461 22.0592 3.70122C22.0962 3.49448 22.1568 3.30219 22.2523 3.11465C22.3461 2.93009 22.4687 2.76158 22.615 2.61525C22.7613 2.46891 22.9301 2.34628 23.1145 2.25252C23.302 2.15704 23.4942 2.09639 23.7008 2.05922C23.9042 2.02267 24.1118 2.01052 24.3177 2.00495C24.4121 2.00238 24.5066 2.00133 24.6012 2.00065C24.7131 2 24.8255 2 24.9376 2ZM52.1963 2.70066L51.8651 2.70002H24.9376L24.6052 2.70068C24.5162 2.70129 24.4265 2.70226 24.3368 2.7047C24.1795 2.70896 23.9957 2.71744 23.8246 2.7482C23.676 2.77493 23.5512 2.81566 23.4321 2.87632C23.3128 2.93696 23.2046 3.01558 23.1101 3.11015C23.0152 3.20504 22.9366 3.31321 22.8764 3.4317C22.8153 3.55157 22.7747 3.67615 22.7482 3.82437C22.7171 3.99674 22.7086 4.1801 22.7044 4.33688C22.702 4.42647 22.701 4.51613 22.7004 4.60581L22.7 4.86841L22.7 4.93789V20.0624L22.7 20.1319L22.7004 20.3951C22.701 20.4842 22.702 20.5739 22.7044 20.6636C22.7086 20.8202 22.7171 21.0034 22.748 21.1744C22.7747 21.324 22.8153 21.4485 22.8761 21.5678C22.9367 21.6872 23.0152 21.7952 23.1096 21.8895C23.2047 21.9848 23.3126 22.0632 23.4311 22.1233C23.5515 22.1848 23.6761 22.2255 23.8246 22.2522C23.9978 22.2831 24.1892 22.2916 24.3366 22.2956C24.4238 22.2976 24.514 22.2988 24.6044 22.2992C24.7152 22.3001 24.8243 22.3001 24.9332 22.3001H24.9376H51.8651C51.9752 22.3001 52.0857 22.3001 52.1959 22.2993C52.2883 22.2988 52.3785 22.2976 52.4691 22.2956C52.6132 22.2916 52.8045 22.2831 52.9791 22.252C53.1264 22.2255 53.251 22.1848 53.3698 22.1241C53.4895 22.0635 53.5974 21.985 53.6925 21.8899C53.787 21.7954 53.8657 21.687 53.9264 21.5678C53.9874 21.4484 54.0278 21.3242 54.0541 21.1764C54.0851 21.0051 54.0935 20.8211 54.0978 20.6634C54.1003 20.5741 54.1014 20.485 54.1019 20.3959C54.1027 20.285 54.1027 20.1768 54.1027 20.0681V20.0624V4.93789V4.93215C54.1027 4.82349 54.1027 4.71509 54.1019 4.60664C54.1014 4.51538 54.1003 4.42624 54.0978 4.33709C54.0935 4.17917 54.0851 3.99506 54.0545 3.82577C54.0278 3.67591 53.9873 3.55173 53.9267 3.43293C53.8659 3.3134 53.7871 3.20492 53.6921 3.10985C53.5976 3.01542 53.4892 2.93671 53.371 2.87664C53.2513 2.81568 53.1265 2.77493 52.9778 2.74814C52.8066 2.71746 52.623 2.70896 52.466 2.70472C52.3758 2.70226 52.2861 2.70129 52.1963 2.70066Z" fill="#BEBEBE"/>
<path d="M30.955 9.06316C31.2358 8.71185 31.4264 8.24016 31.3762 7.75814C30.965 7.77858 30.4633 8.02939 30.1728 8.38097C29.912 8.68204 29.6812 9.17349 29.7413 9.6353C30.2029 9.67533 30.664 9.4046 30.955 9.06316Z" fill="#BEBEBE"/>
<path d="M31.371 9.72554C30.7007 9.68562 30.1308 10.1059 29.8107 10.1059C29.4905 10.1059 29.0003 9.74566 28.4702 9.75537C27.7802 9.76551 27.1399 10.1556 26.7898 10.7761C26.0695 12.0175 26.5997 13.8588 27.3001 14.8697C27.6402 15.3699 28.0501 15.9206 28.5901 15.9008C29.1004 15.8808 29.3005 15.5704 29.9207 15.5704C30.5406 15.5704 30.7208 15.9008 31.2609 15.8908C31.8211 15.8808 32.1713 15.3904 32.5114 14.8898C32.9016 14.3196 33.0613 13.7691 33.0714 13.7388C33.0613 13.7288 31.9912 13.3183 31.9813 12.0873C31.9712 11.0566 32.8214 10.5663 32.8615 10.5359C32.3813 9.82574 31.6311 9.74566 31.371 9.72554Z" fill="#BEBEBE"/>
<path d="M37.2069 8.33055C38.6637 8.33055 39.6782 9.33474 39.6782 10.7968C39.6782 12.264 38.6429 13.2734 37.1704 13.2734H35.5575V15.8385H34.3921V8.33055H37.2069V8.33055ZM35.5575 12.2952H36.8946C37.9093 12.2952 38.4867 11.749 38.4867 10.802C38.4867 9.85509 37.9093 9.31396 36.8998 9.31396H35.5575V12.2952V12.2952Z" fill="#BEBEBE"/>
<path d="M39.9827 14.2829C39.9827 13.3254 40.7163 12.7375 42.0171 12.6647L43.5155 12.5763V12.1549C43.5155 11.5461 43.1044 11.1819 42.4178 11.1819C41.7672 11.1819 41.3614 11.494 41.2626 11.9832H40.2012C40.2637 10.9945 41.1065 10.2661 42.4593 10.2661C43.7861 10.2661 44.6341 10.9685 44.6341 12.0664V15.8385H43.557V14.9384H43.5311C43.2138 15.5472 42.5217 15.9322 41.8038 15.9322C40.7319 15.9322 39.9827 15.2662 39.9827 14.2829ZM43.5155 13.7886V13.3568L42.1679 13.44C41.4967 13.4868 41.1169 13.7834 41.1169 14.2517C41.1169 14.7303 41.5123 15.0425 42.1159 15.0425C42.9015 15.0425 43.5155 14.5013 43.5155 13.7886Z" fill="#BEBEBE"/>
<path d="M45.651 17.8521V16.9415C45.7341 16.9623 45.9214 16.9623 46.0151 16.9623C46.5354 16.9623 46.8164 16.7438 46.988 16.1819C46.988 16.1715 47.0869 15.8489 47.0869 15.8437L45.1099 10.3649H46.3272L47.7114 14.8187H47.732L49.1162 10.3649H50.3024L48.2523 16.1246C47.7842 17.4514 47.2431 17.8781 46.1088 17.8781C46.0151 17.8781 45.7341 17.8676 45.651 17.8521Z" fill="#BEBEBE"/>
</svg>
