<svg width="75" height="25" viewBox="0 0 75 25" fill="none" xmlns="http://www.w3.org/2000/svg">
<g clip-path="url(#clip0)">
<path fill-rule="evenodd" clip-rule="evenodd" d="M24.0668 2.00594H52.178C52.2949 2.00594 52.4122 2.00594 52.5291 2.00653C52.6275 2.00732 52.726 2.00831 52.8251 2.01089C53.0397 2.01643 53.2565 2.02851 53.4692 2.06514C53.6845 2.10217 53.8852 2.16276 54.0812 2.2582C54.2738 2.35186 54.4494 2.47443 54.6025 2.62056C54.755 2.76689 54.8831 2.93519 54.9811 3.11974C55.0811 3.30706 55.1444 3.49912 55.1826 3.70565C55.2211 3.909 55.2335 4.11632 55.2393 4.32185C55.242 4.4163 55.2433 4.51056 55.2439 4.60481C55.2447 4.71688 55.2447 4.82896 55.2447 4.94123V20.0529C55.2447 20.1652 55.2447 20.2771 55.2439 20.3893C55.2433 20.4836 55.242 20.578 55.2393 20.6723C55.2335 20.8776 55.2211 21.0851 55.1826 21.2883C55.1444 21.4948 55.0811 21.6869 54.9811 21.8744C54.8831 22.0587 54.755 22.2273 54.6025 22.3734C54.4494 22.5197 54.2738 22.6423 54.0812 22.7357C53.8852 22.8314 53.6845 22.892 53.4692 22.9292C53.2565 22.9654 53.0397 22.9777 52.8251 22.9833C52.726 22.9854 52.6275 22.9868 52.5291 22.9872C52.4122 22.988 52.2949 22.988 52.178 22.988H24.0668C23.9497 22.988 23.8324 22.988 23.7155 22.9872C23.6168 22.9868 23.5183 22.9854 23.4196 22.9833C23.2047 22.9777 22.9878 22.9654 22.7756 22.9292C22.56 22.892 22.3593 22.8314 22.1636 22.7357C21.971 22.6423 21.7949 22.5197 21.642 22.3734C21.4893 22.2273 21.3613 22.0587 21.2634 21.8744C21.1637 21.6869 21.1004 21.4948 21.0619 21.2883C21.0234 21.0851 21.0108 20.8776 21.005 20.6723C21.0023 20.578 21.0011 20.4836 21.0004 20.3893C21 20.2995 21 20.21 21 20.1203C21 20.0978 21 20.0754 21 20.0529V4.94123C21 4.91877 21 4.89631 21 4.87387C21 4.78411 21 4.69446 21.0004 4.60481C21.0011 4.51056 21.0023 4.4163 21.005 4.32185C21.0108 4.11632 21.0234 3.909 21.0619 3.70565C21.1004 3.49912 21.1637 3.30706 21.2634 3.11974C21.3613 2.93519 21.4893 2.76689 21.642 2.62056C21.7949 2.47443 21.971 2.35186 22.1636 2.2582C22.3593 2.16276 22.56 2.10217 22.7756 2.06514C22.9878 2.02851 23.2047 2.01643 23.4196 2.01089C23.5183 2.00831 23.6168 2.00732 23.7155 2.00653C23.8324 2.00594 23.9497 2.00594 24.0668 2.00594ZM52.5239 2.70689L52.178 2.70629H24.0667L23.7198 2.70689C23.6269 2.70748 23.5332 2.70847 23.4396 2.71104C23.2754 2.7152 23.0836 2.72372 22.9048 2.75441C22.7497 2.78114 22.6193 2.82173 22.495 2.88252C22.3706 2.94311 22.2575 3.02152 22.1588 3.11617C22.0599 3.21082 21.9778 3.31893 21.9149 3.43734C21.8511 3.55714 21.8087 3.68169 21.7812 3.8296C21.7487 4.00187 21.7398 4.18503 21.7353 4.34185C21.7328 4.43135 21.7318 4.52085 21.7311 4.61055L21.7307 4.87291V20.1234L21.7311 20.3864C21.7318 20.4753 21.7328 20.565 21.7353 20.6545C21.7398 20.8111 21.7487 20.994 21.7808 21.1649C21.8087 21.3144 21.8511 21.4388 21.9147 21.558C21.978 21.6774 22.0599 21.7853 22.1584 21.8793C22.2577 21.9746 22.3702 22.053 22.494 22.113C22.6197 22.1744 22.7497 22.2152 22.9048 22.2417C23.0857 22.2726 23.2855 22.2813 23.4394 22.2853C23.5305 22.2872 23.6246 22.2884 23.719 22.2888C23.8343 22.2896 23.9481 22.2896 24.0614 22.2896H24.0622H24.0667H52.178H52.1788C52.2935 22.2896 52.4087 22.2896 52.5233 22.2888C52.6199 22.2884 52.714 22.2872 52.8086 22.2851C52.959 22.2813 53.1586 22.2726 53.3411 22.2415C53.4948 22.2152 53.6247 22.1744 53.7489 22.1138C53.8738 22.0532 53.9864 21.9748 54.0857 21.8797C54.1844 21.7853 54.2665 21.6772 54.3298 21.558C54.3935 21.4386 54.4357 21.3146 54.4633 21.1669C54.4955 20.9958 54.5044 20.8119 54.5088 20.6545C54.5115 20.5652 54.5127 20.4761 54.5131 20.3869C54.514 20.2745 54.514 20.1644 54.514 20.0539V4.94221C54.514 4.83172 54.514 4.72163 54.5131 4.61134C54.5127 4.52006 54.5115 4.43095 54.5088 4.34205C54.5044 4.18423 54.4955 4.00028 54.4637 3.83099C54.4357 3.68129 54.3935 3.55734 54.3302 3.43853C54.2667 3.31913 54.1844 3.21082 54.0853 3.11578C53.9866 3.02152 53.8736 2.94272 53.7501 2.88272C53.6252 2.82193 53.4948 2.78114 53.3396 2.75441C53.1609 2.72372 52.9691 2.7152 52.8052 2.71104C52.7111 2.70847 52.6174 2.70748 52.5239 2.70689Z" fill="#BEBEBE"/>
<path d="M37.4871 12.9825V15.973H36.5115V8.59094H39.0991C39.7232 8.57917 40.3292 8.80875 40.7716 9.2326C41.6564 10.0332 41.7109 11.3813 40.8807 12.2466C40.8443 12.282 40.808 12.3173 40.7716 12.3526C40.3171 12.7706 39.7596 12.9825 39.0991 12.9825H37.4871ZM37.4871 9.49751V12.0759H39.1233C39.4869 12.0877 39.8384 11.9464 40.0868 11.6933C40.5959 11.1811 40.5838 10.357 40.0565 9.86249C39.8081 9.62702 39.4748 9.49751 39.1233 9.49751H37.4871Z" fill="#BEBEBE"/>
<path d="M43.7227 10.7573C44.4439 10.7573 45.0135 10.9457 45.4316 11.3165C45.8498 11.6874 46.0558 12.2054 46.0558 12.8589V15.973H45.1226V15.2724H45.0801C44.6741 15.8494 44.1409 16.1378 43.4682 16.1378C42.8986 16.1378 42.4138 15.973 42.032 15.6433C41.6563 15.3372 41.4442 14.8839 41.4563 14.4071C41.4563 13.8832 41.6623 13.4711 42.0684 13.1591C42.4744 12.8471 43.0198 12.694 43.6985 12.694C44.2802 12.694 44.7529 12.8 45.1286 13.0001V12.7823C45.1286 12.4586 44.9832 12.1524 44.7287 11.9405C44.4681 11.7168 44.1348 11.5932 43.7894 11.5932C43.244 11.5932 42.8137 11.8169 42.4986 12.2643L41.6381 11.7404C42.0987 11.0869 42.7955 10.7573 43.7227 10.7573ZM42.4623 14.4247C42.4623 14.672 42.5835 14.9016 42.7834 15.0429C43.0016 15.2077 43.2682 15.296 43.5409 15.2901C43.953 15.2901 44.3469 15.1312 44.6378 14.8486C44.9589 14.5543 45.1226 14.2069 45.1226 13.8066C44.8196 13.5712 44.3954 13.4534 43.85 13.4593C43.4561 13.4593 43.1228 13.5535 42.8561 13.736C42.5956 13.9185 42.4623 14.1481 42.4623 14.4247Z" fill="#BEBEBE"/>
<path fill-rule="evenodd" clip-rule="evenodd" d="M51.4128 10.9221L48.1526 18.1923H47.1467L48.3586 15.6492L46.2195 10.9221H47.28L48.8253 14.5484H48.8434L50.3524 10.9221H51.4128Z" fill="#BEBEBE"/>
<path fill-rule="evenodd" clip-rule="evenodd" d="M33.5422 12.3349C33.5422 12.0465 33.5179 11.758 33.4694 11.4755H29.3547V13.1061H31.7121C31.6151 13.63 31.3 14.101 30.8394 14.3953V15.4549H32.2453C33.0695 14.7191 33.5422 13.63 33.5422 12.3349Z" fill="#BEBEBE"/>
<path fill-rule="evenodd" clip-rule="evenodd" d="M29.3545 16.4792C30.5302 16.4792 31.524 16.1025 32.2451 15.4549L30.8392 14.3953C30.4453 14.6543 29.9424 14.8015 29.3545 14.8015C28.2153 14.8015 27.2518 14.0539 26.9063 13.0531H25.458V14.1481C26.1973 15.5786 27.7062 16.4792 29.3545 16.4792Z" fill="#BEBEBE"/>
<path fill-rule="evenodd" clip-rule="evenodd" d="M26.9064 13.0531C26.7246 12.5292 26.7246 11.9582 26.9064 11.4284V10.3393H25.4581C24.8339 11.5343 24.8339 12.9472 25.4581 14.1422L26.9064 13.0531Z" fill="#BEBEBE"/>
<path fill-rule="evenodd" clip-rule="evenodd" d="M29.3546 9.67999C29.9787 9.66822 30.5787 9.8978 31.0271 10.3158L32.2754 9.10309C31.4816 8.3849 30.4393 7.99048 29.3546 8.00226C27.7062 8.00226 26.1973 8.90882 25.458 10.3393L26.9063 11.4343C27.2518 10.4276 28.2153 9.67999 29.3546 9.67999Z" fill="#BEBEBE"/>
</g>
<defs>
<clipPath id="clip0">
<rect width="34.2632" height="21" fill="white" transform="translate(21 2)"/>
</clipPath>
</defs>
</svg>
