<svg width="75" height="25" viewBox="0 0 75 25" fill="none" xmlns="http://www.w3.org/2000/svg">
<path d="M22.1739 16.0294V15.857H22.2434V15.8218H22.0664V15.857H22.136V16.0294H22.1739ZM22.5176 16.0294V15.8215H22.4634L22.401 15.9645L22.3385 15.8215H22.2842V16.0294H22.3225V15.8726L22.3811 16.0077H22.4208L22.4794 15.8722V16.0294H22.5176Z" fill="#F79E1B"/>
<path d="M28.1392 18.0963H27.9409V16.2893V12.675V9.06067V7.25366H28.1392V10.8678V14.4821V18.0963Z" fill="#BEBEBE"/>
<path d="M33.6281 16.0295H33.0715V9.6427H33.6281V16.0295ZM37.6882 9.6427C38.1764 9.63572 38.6623 9.71129 39.1253 9.86621C39.5276 10.0014 39.8974 10.2189 40.2111 10.5049C40.5118 10.7855 40.7469 11.129 40.8998 11.5108C41.2223 12.3649 41.2223 13.3072 40.8998 14.1613C40.7469 14.5432 40.5118 14.8866 40.2111 15.1673C39.8974 15.4533 39.5277 15.6708 39.1253 15.806C38.6623 15.9609 38.1764 16.0365 37.6882 16.0295H35.357V9.6427H37.6882ZM35.9136 10.1719V15.5003H37.6882C38.1066 15.5077 38.5232 15.4437 38.92 15.311C39.2541 15.1978 39.5604 15.0151 39.8187 14.775C40.064 14.5407 40.2528 14.2536 40.3707 13.9355C40.62 13.2237 40.62 12.4484 40.3707 11.7366C40.2525 11.4181 40.0638 11.1303 39.8187 10.895C39.5611 10.6538 39.2546 10.4709 38.92 10.3589C38.5229 10.2278 38.1064 10.1645 37.6882 10.1719L35.9136 10.1719ZM47.6105 9.5697C47.8778 9.56896 48.1443 9.59958 48.4044 9.66093C48.6535 9.71944 48.8947 9.8075 49.1228 9.92323C49.3419 10.0343 49.5459 10.173 49.7296 10.3361C49.9092 10.4957 50.065 10.68 50.1926 10.8836L49.7273 11.1937C49.6179 11.0265 49.4867 10.8747 49.3372 10.7421C49.1862 10.608 49.0192 10.4931 48.84 10.4C48.6549 10.3042 48.4588 10.2314 48.2561 10.1833C48.0446 10.1327 47.8279 10.1075 47.6105 10.108C47.2477 10.1048 46.8876 10.1714 46.5499 10.3041C46.2307 10.4299 45.9404 10.6193 45.6968 10.8608C45.451 11.1071 45.2571 11.4003 45.1266 11.723C44.8498 12.4392 44.8498 13.233 45.1266 13.9492C45.257 14.2719 45.4509 14.5651 45.6968 14.8114C45.9404 15.0529 46.2307 15.2423 46.5499 15.368C46.8875 15.5008 47.2476 15.5674 47.6105 15.5642C47.827 15.5648 48.0429 15.5403 48.2538 15.4912C48.4559 15.4443 48.6513 15.3723 48.8355 15.2768C49.0147 15.1837 49.1818 15.0688 49.3327 14.9346C49.483 14.8011 49.6143 14.6476 49.7228 14.4784L50.179 14.8114C50.0461 15.011 49.8874 15.192 49.7068 15.3498C49.5236 15.5094 49.3214 15.6458 49.1047 15.7558C48.8795 15.87 48.6413 15.9566 48.3953 16.0135C47.7014 16.1715 46.976 16.1183 46.3126 15.8607C45.9253 15.7077 45.5725 15.4789 45.2748 15.1878C44.9786 14.894 44.745 14.5433 44.5882 14.1568C44.2568 13.3083 44.2568 12.3662 44.5882 11.5177C44.7447 11.1303 44.9782 10.7787 45.2748 10.4844C45.5725 10.1932 45.9253 9.96445 46.3126 9.81144C46.7256 9.64785 47.1663 9.56576 47.6105 9.5697H47.6105ZM51.9034 12.4802C51.9849 12.3448 52.0855 12.2219 52.2022 12.1153C52.3135 12.0138 52.4387 11.9285 52.574 11.8621C52.7075 11.7968 52.8484 11.7478 52.9937 11.7161C53.1375 11.6844 53.2844 11.6683 53.4317 11.6682C53.6817 11.6653 53.9303 11.7062 54.1662 11.7891C54.3784 11.8638 54.5732 11.981 54.7387 12.1335C54.9005 12.2858 55.0267 12.4719 55.1083 12.6787C55.1976 12.9075 55.2417 13.1515 55.2383 13.3972V16.0295H54.7182V13.5569C54.721 13.3585 54.6901 13.161 54.627 12.9729C54.5712 12.8079 54.4792 12.6575 54.3578 12.5327C54.2353 12.4101 54.0873 12.3159 53.9244 12.2567C53.7371 12.19 53.5393 12.1575 53.3404 12.1609C53.1479 12.1594 52.9567 12.1942 52.777 12.2635C52.6068 12.329 52.4516 12.4283 52.3209 12.5555C52.1899 12.6841 52.0859 12.8377 52.0152 13.0071C51.9391 13.1899 51.901 13.3862 51.9034 13.5842V16.0295H51.3833V9.46016H51.9034L51.9034 12.4802ZM58.3314 11.6682C58.6051 11.6657 58.8763 11.7209 59.1273 11.8302C59.3678 11.935 59.5837 12.0888 59.7614 12.2818C59.9449 12.484 60.0882 12.7193 60.1835 12.9752C60.2893 13.2575 60.3434 13.5565 60.3431 13.858C60.3431 13.8975 60.3424 13.9348 60.3409 13.9697C60.3393 14.0047 60.3371 14.039 60.3341 14.0724H56.7346C56.748 14.3029 56.8045 14.5288 56.9011 14.7384C56.9883 14.9256 57.1116 15.0938 57.2639 15.2334C57.4129 15.3688 57.5873 15.4735 57.777 15.5414C57.9753 15.6122 58.1845 15.6477 58.3951 15.6463C58.6731 15.6511 58.9487 15.595 59.2027 15.482C59.4415 15.3715 59.6591 15.2202 59.8458 15.0349L60.1242 15.3908C59.9975 15.5193 59.8576 15.634 59.7068 15.733C59.5707 15.8215 59.4253 15.8949 59.2733 15.9519C59.1281 16.0061 58.9774 16.0443 58.824 16.066C58.6713 16.0873 58.5174 16.098 58.3633 16.0979C58.0665 16.101 57.7721 16.046 57.4964 15.9359C57.2396 15.8332 57.0067 15.6787 56.8122 15.482C56.6172 15.2822 56.4651 15.0447 56.365 14.7841C56.2557 14.4972 56.2015 14.1923 56.2054 13.8853C56.2022 13.5804 56.2572 13.2777 56.3674 12.9935C56.4685 12.732 56.6204 12.4933 56.8144 12.2909C57.0059 12.0937 57.2357 11.9377 57.4896 11.8324C57.7563 11.7216 58.0426 11.6658 58.3313 11.6682H58.3314ZM58.3222 12.1289C58.1168 12.1264 57.9129 12.1644 57.7222 12.2407C57.545 12.3129 57.3833 12.4182 57.2456 12.551C57.1062 12.6868 56.9926 12.8467 56.9103 13.0231C56.8214 13.2131 56.7652 13.4167 56.7438 13.6253H59.814C59.7987 13.4152 59.7478 13.2093 59.6634 13.0163C59.5867 12.8401 59.4776 12.68 59.3417 12.5441C59.2077 12.411 59.0485 12.3057 58.8735 12.2345C58.6985 12.1632 58.5111 12.1273 58.3222 12.1289V12.1289ZM63.3356 11.6682C63.6399 11.6653 63.9416 11.7234 64.223 11.8393C64.4895 11.9493 64.7274 12.1186 64.9187 12.3343L64.5811 12.6856C64.419 12.5219 64.228 12.3896 64.0177 12.2955C63.7982 12.2004 63.5611 12.153 63.322 12.1563C63.0972 12.1545 62.8744 12.1987 62.6674 12.2863C62.4694 12.37 62.2902 12.4926 62.1405 12.6468C61.9889 12.8043 61.8703 12.9903 61.7914 13.1942C61.6242 13.6398 61.6242 14.1309 61.7914 14.5765C61.8687 14.7784 61.9862 14.9626 62.1368 15.1179C62.2874 15.2732 62.4679 15.3963 62.6674 15.4798C62.8744 15.5674 63.0972 15.6117 63.322 15.6098C63.5647 15.6125 63.8052 15.5627 64.0268 15.4638C64.2375 15.3691 64.4298 15.2378 64.5947 15.076L64.9187 15.4319C64.7256 15.6467 64.4872 15.8157 64.2206 15.9269C63.6519 16.1542 63.0176 16.155 62.4483 15.9291C62.1875 15.8231 61.9511 15.6651 61.7535 15.4647C61.5558 15.2643 61.4011 15.0257 61.2987 14.7636C61.0828 14.1972 61.0828 13.5712 61.2987 13.0049C61.4006 12.7421 61.5551 12.5029 61.7528 12.3021C61.9505 12.1013 62.1872 11.943 62.4483 11.837C62.7298 11.7221 63.0315 11.6647 63.3356 11.6682H63.3356ZM66.4833 13.5478H67.1813L68.9878 11.7366H69.6448L67.601 13.7622L69.6812 16.0295H69.0198L67.1813 14.0177H66.4833V16.0295H65.9632V9.46016H66.4833V13.5478Z" fill="#BEBEBE"/>
<path d="M16.28 8.35417H11.562V16.8331H16.28V8.35417Z" fill="#8F9194"/>
<path d="M11.8666 12.5952C11.8656 11.7786 12.0504 10.9724 12.4069 10.2378C12.7634 9.50306 13.2824 8.85909 13.9246 8.35456C13.129 7.72982 12.1738 7.34146 11.168 7.23385C10.1622 7.12624 9.14641 7.30372 8.23671 7.74602C7.327 8.18831 6.56005 8.87758 6.02349 9.73507C5.48693 10.5926 5.20239 11.5837 5.20239 12.5952C5.20239 13.6068 5.48693 14.5979 6.02349 15.4554C6.56005 16.3129 7.327 17.0021 8.23671 17.4444C9.14641 17.8867 10.1622 18.0642 11.168 17.9566C12.1738 17.849 13.129 17.4606 13.9246 16.8359C13.2824 16.3314 12.7634 15.6874 12.4069 14.9527C12.0504 14.218 11.8656 13.4119 11.8666 12.5952Z" fill="#636366"/>
<path d="M22.6457 12.5948C22.6453 13.6066 22.3604 14.598 21.8234 15.4555C21.2865 16.3131 20.5192 17.0024 19.6092 17.4447C18.6991 17.8869 17.683 18.0643 16.677 17.9566C15.6709 17.8489 14.7155 17.4604 13.9197 16.8355C14.5617 16.3307 15.0807 15.6868 15.4376 14.9522C15.7945 14.2176 15.98 13.4115 15.98 12.5948C15.98 11.7781 15.7945 10.9721 15.4376 10.2375C15.0807 9.50292 14.5617 8.85895 13.9197 8.35418C14.7155 7.72928 15.6709 7.34078 16.677 7.23306C17.683 7.12534 18.6991 7.30274 19.6092 7.745C20.5192 8.18726 21.2865 8.87655 21.8234 9.73413C22.3604 10.5917 22.6453 11.583 22.6457 12.5948Z" fill="#BEBEBE"/>
</svg>
