<svg width="28" height="26" viewBox="0 0 28 26" fill="none" xmlns="http://www.w3.org/2000/svg">
<g clip-path="url(#clip0_3_2)">
<path fill-rule="evenodd" clip-rule="evenodd" d="M2.50882 9.00128C2.75119 8.99983 3.47153 8.93494 3.77664 9.96467C3.98216 10.6583 4.30957 
11.7945 4.75882 13.3732H4.9418C5.42359 11.7088 5.75457 10.5726 5.9347 9.96467C6.24301 8.92422 7.01374 9.00128 7.32203 
9.00128H9.70062V16.4H7.27631V12.0398H7.11373L5.7623 16.4H3.93832L2.58688 12.0366H2.42433V16.4H0V9.00128H2.50882ZM13.1819 
9.00128V13.3647H13.3753L15.0192 9.7767C15.3383 9.06267 16.0184 9.00128 16.0184 9.00128H18.3644V16.4H15.8895V12.0366H15.6961L14.0844 
15.6246C13.7653 16.3354 13.0529 16.4 13.0529 16.4H10.7069V9.00128H13.1819ZM26.9189 12.5172C26.5737 13.4955 25.4896 14.1961 24.2892 
14.1961H21.6938V16.4H19.3403V12.5172H26.9189Z" fill="#8F9194"/>
<path fill-rule="evenodd" clip-rule="evenodd" d="M24.4027 9.00128H19.2168C19.3403 10.6485 20.7589 12.0586 22.2275 12.0586H27.0824C27.3626 
10.6896 26.3982 9.00128 24.4027 9.00128Z" fill="url(#paint0_linear_3_2)"/>
</g>
<defs>
<linearGradient id="paint0_linear_3_2" x1="27.1301" y1="10.9245" x2="19.2168" y2="10.9245" gradientUnits="userSpaceOnUse">
<stop stop-color="#8F9194"/>
<stop offset="1" stop-color="#C1C2C4"/>
</linearGradient>
<clipPath id="clip0_3_2">
<rect width="27.13" height="25.4" fill="white"/>
</clipPath>
</defs>
</svg>

