<svg width="75" height="25" viewBox="0 0 75 25" fill="none" xmlns="http://www.w3.org/2000/svg">
<path d="M45.6744 14.127L46.0944 14.253C46.0664 14.372 46.0244 14.47 45.9614 14.5469C45.8984 14.6239 45.8284 14.6869 45.7374 14.7219C45.6464 14.7639 45.5344 14.7849 45.3945 14.7849C45.2265 14.7849 45.0935 14.7639 44.9815 14.7149C44.8766 14.6659 44.7856 14.5819 44.7086 14.456C44.6316 14.337 44.5896 14.176 44.5896 13.987C44.5896 13.7351 44.6596 13.5391 44.7926 13.3991C44.9255 13.2591 45.1215 13.1962 45.3665 13.1962C45.5624 13.1962 45.7094 13.2382 45.8214 13.3151C45.9334 13.3921 46.0174 13.5111 46.0664 13.6791L45.6464 13.7701C45.6324 13.7211 45.6184 13.6861 45.5974 13.6651C45.5694 13.6301 45.5414 13.6021 45.4994 13.5811C45.4575 13.5601 45.4155 13.5531 45.3735 13.5531C45.2685 13.5531 45.1845 13.5951 45.1285 13.6861C45.0865 13.7491 45.0655 13.8541 45.0655 13.987C45.0655 14.155 45.0935 14.274 45.1425 14.337C45.1915 14.4 45.2685 14.435 45.3595 14.435C45.4505 14.435 45.5204 14.407 45.5624 14.358C45.6184 14.295 45.6534 14.225 45.6744 14.127Z" fill="#BEBEBE"/>
<path d="M46.2622 13.9865C46.2622 13.7346 46.3322 13.5386 46.4722 13.3986C46.6121 13.2586 46.8081 13.1887 47.0601 13.1887C47.319 13.1887 47.515 13.2586 47.655 13.3916C47.795 13.5316 47.8649 13.7206 47.8649 13.9725C47.8649 14.1545 47.8369 14.3015 47.774 14.4135C47.711 14.5254 47.627 14.6164 47.508 14.6794C47.396 14.7424 47.249 14.7774 47.0811 14.7774C46.9061 14.7774 46.7661 14.7494 46.6471 14.6934C46.5352 14.6374 46.4442 14.5534 46.3672 14.4275C46.2902 14.3015 46.2622 14.1685 46.2622 13.9865ZM46.7381 13.9865C46.7381 14.1405 46.7661 14.2525 46.8221 14.3225C46.8781 14.3925 46.9551 14.4275 47.0601 14.4275C47.1651 14.4275 47.242 14.3925 47.298 14.3295C47.354 14.2595 47.382 14.1405 47.382 13.9725C47.382 13.8255 47.354 13.7206 47.291 13.6576C47.235 13.5876 47.1511 13.5596 47.0531 13.5596C46.9551 13.5596 46.8781 13.5946 46.8221 13.6646C46.7661 13.7206 46.7381 13.8325 46.7381 13.9865Z" fill="#BEBEBE"/>
<path d="M48.1099 13.2166H48.7328L48.9708 14.1545L49.2088 13.2166H49.8317V14.7564H49.4397V13.5806L49.1388 14.7564H48.7888L48.4879 13.5806V14.7564H48.0959V13.2166H48.1099Z" fill="#BEBEBE"/>
<path d="M50.1394 13.2166H50.9303C51.1052 13.2166 51.2312 13.2586 51.3152 13.3426C51.3992 13.4266 51.4412 13.5386 51.4412 13.6926C51.4412 13.8465 51.3922 13.9725 51.3012 14.0565C51.2102 14.1475 51.0632 14.1895 50.8743 14.1895H50.6153V14.7634H50.1394V13.2166ZM50.6153 13.8745H50.7343C50.8253 13.8745 50.8883 13.8605 50.9303 13.8255C50.9653 13.7905 50.9863 13.7556 50.9863 13.7066C50.9863 13.6576 50.9723 13.6156 50.9373 13.5806C50.9023 13.5456 50.8463 13.5316 50.7553 13.5316H50.6223V13.8745H50.6153Z" fill="#BEBEBE"/>
<path d="M51.6934 13.2166H52.1693V14.3785H52.9112V14.7564H51.6934V13.2166Z" fill="#BEBEBE"/>
<path d="M53.1489 13.2166H53.6248V14.7564H53.1489V13.2166Z" fill="#BEBEBE"/>
<path d="M54.9128 14.4974H54.3739L54.2969 14.7494H53.814L54.3949 13.2097H54.9128L55.4937 14.7494H54.9968L54.9128 14.4974ZM54.8148 14.1685L54.6468 13.6156L54.4789 14.1685H54.8148Z" fill="#BEBEBE"/>
<path d="M55.6406 13.2166H56.0816L56.6625 14.0705V13.2166H57.1104V14.7564H56.6625L56.0885 13.9095V14.7564H55.6406V13.2166Z" fill="#BEBEBE"/>
<path d="M57.3206 13.2166H58.7693V13.5946H58.2864V14.7564H57.8105V13.5946H57.3276V13.2166H57.3206Z" fill="#BEBEBE"/>
<path d="M39.9492 15.5613L41.328 15.1273L40.8801 14.1335C40.5511 14.5464 40.2222 15.0783 39.9492 15.5613ZM39.4803 11.019L36.7787 5L17 6.11982L22.4801 21.0694L33.0274 17.7449C32.3555 16.7791 32.1105 15.6313 32.8874 15.0713C33.7552 14.4414 35.064 15.1693 35.8969 16.1982C36.7018 14.8544 38.9624 11.7259 39.4803 11.019Z" fill="#BEBEBE"/>
<path d="M36.1628 9.34976C36.9887 9.34976 37.6605 8.71986 37.6605 7.93599C37.6605 7.15212 36.9887 6.52222 36.1628 6.52222C35.3369 6.52222 34.665 7.15212 34.665 7.93599C34.665 8.71286 35.3369 9.34976 36.1628 9.34976ZM34.938 9.95866H37.3876V16.3626H34.938V9.95866Z" fill="#FEFEFE"/>
<path d="M33.7273 11.8273C33.7483 11.8343 33.7623 11.8273 33.7623 11.8064V10.1826C33.7623 10.1616 33.7483 10.1406 33.7273 10.1266C33.7273 10.1266 33.4053 9.91666 32.4255 9.86067C32.3765 9.83268 31.5156 9.82568 31.2847 9.86067C27.7153 10.1476 27.5823 12.7302 27.5823 12.8422V13.4721C27.5823 13.5491 27.5823 16.1876 31.2847 16.4186C31.6486 16.4466 32.3555 16.4186 32.4255 16.4186C33.2793 16.4186 33.8672 16.1596 33.8672 16.1596C33.8882 16.1526 33.9022 16.1316 33.9022 16.1106V14.5919C33.9022 14.5709 33.8882 14.5639 33.8742 14.5779C33.8742 14.5779 33.6083 14.7879 32.4465 14.9068C32.1175 14.9418 31.9566 14.9278 31.8376 14.9068C30.1858 14.6269 30.1089 13.4231 30.1089 13.4231C30.1089 13.4021 30.1019 13.3671 30.1019 13.3531V12.8912C30.1019 12.8702 30.1019 12.8352 30.1089 12.8212C30.1089 12.8212 30.2208 11.5264 31.8376 11.3864H32.4465C33.1534 11.4774 33.7273 11.8273 33.7273 11.8273Z" fill="#FEFEFE"/>
<path d="M20.7793 16.3416C20.7793 16.3626 20.7933 16.3766 20.8143 16.3766H23.2009C23.2219 16.3766 23.2359 16.3626 23.2359 16.3416V14.4799C23.2359 14.4589 23.2499 14.4449 23.2709 14.4449C23.2709 14.4449 27.0853 14.7179 27.0853 12.1633C27.0853 10.1406 24.6917 9.92367 23.9078 9.95866C23.8938 9.95866 20.8143 9.95866 20.8143 9.95866C20.7933 9.95866 20.7793 9.97266 20.7793 9.99365V16.3416ZM23.1939 13.0242V11.3514H23.7818C23.7818 11.3514 24.6287 11.3864 24.6987 11.9673C24.7126 12.0093 24.7126 12.2963 24.6987 12.3103C24.5867 12.9892 23.8518 13.0242 23.8518 13.0242H23.1939Z" fill="#FEFEFE"/>
<path d="M36.233 19.4526C36.429 19.4526 36.5829 19.4526 36.8349 19.3406C37.7028 18.8857 40.6353 11.7259 43.7288 9.52126C43.7498 9.50726 43.7708 9.48627 43.7848 9.46527C43.8058 9.43727 43.8058 9.40928 43.8058 9.40928C43.8058 9.40928 43.8058 9.2623 43.3508 9.2623C40.6003 9.18532 37.7378 14.9594 36.233 17.241C36.212 17.269 36.114 17.241 36.114 17.241C36.114 17.241 35.1062 16.0512 34.2313 15.5963C34.2103 15.5893 34.1123 15.5543 34.0074 15.5613C33.9374 15.5613 33.5314 15.6453 33.3425 15.8412C33.1185 16.0792 33.1255 16.2122 33.1255 16.4991C33.1255 16.5201 33.1395 16.6181 33.1675 16.6671C33.3845 17.045 34.3573 18.3888 35.1622 19.1307C35.2812 19.2217 35.4701 19.4526 36.233 19.4526Z" fill="#BEBEBE"/>
<path d="M44.5403 7.35861H46.8289C47.2838 7.35861 47.6478 7.4216 47.9207 7.54058C48.2007 7.66656 48.4316 7.84153 48.6066 8.06549C48.7886 8.29645 48.9216 8.56241 48.9985 8.86336C49.0825 9.16431 49.1245 9.48626 49.1245 9.8292C49.1245 10.3611 49.0615 10.774 48.9426 11.068C48.8236 11.3619 48.6556 11.6069 48.4386 11.8099C48.2217 12.0058 47.9907 12.1388 47.7458 12.2088C47.4098 12.2998 47.1019 12.3418 46.8289 12.3418H44.5403V7.35861ZM46.08 8.48542V11.208H46.458C46.7799 11.208 47.0109 11.173 47.1439 11.103C47.2768 11.033 47.3888 10.907 47.4658 10.7321C47.5428 10.5571 47.5848 10.2631 47.5848 9.86419C47.5848 9.33228 47.5008 8.97534 47.3258 8.77937C47.1509 8.5834 46.8709 8.48542 46.465 8.48542H46.08Z" fill="#BEBEBE"/>
<path d="M49.5518 10.6971L51.0215 10.6061C51.0565 10.844 51.1195 11.026 51.2175 11.152C51.3785 11.355 51.6024 11.4529 51.8964 11.4529C52.1133 11.4529 52.2883 11.4039 52.4073 11.299C52.5263 11.194 52.5893 11.075 52.5893 10.942C52.5893 10.816 52.5333 10.6971 52.4213 10.5921C52.3093 10.4871 52.0433 10.3961 51.6304 10.3051C50.9515 10.1512 50.4756 9.94818 50.1817 9.69622C49.8877 9.44427 49.7477 9.12232 49.7477 8.73038C49.7477 8.47143 49.8247 8.23347 49.9717 8.0025C50.1187 7.77154 50.3426 7.59657 50.6436 7.46359C50.9445 7.33061 51.3505 7.26762 51.8684 7.26762C52.5053 7.26762 52.9952 7.3866 53.3241 7.62457C53.6601 7.86253 53.8561 8.24046 53.919 8.75838L52.4633 8.84237C52.4213 8.6184 52.3443 8.45743 52.2183 8.35245C52.0923 8.24746 51.9244 8.19847 51.7074 8.19847C51.5254 8.19847 51.3925 8.23347 51.3015 8.31045C51.2105 8.38744 51.1685 8.47843 51.1685 8.59041C51.1685 8.66739 51.2035 8.74438 51.2805 8.80737C51.3505 8.87036 51.5254 8.93335 51.7984 8.98934C52.4703 9.13632 52.9532 9.28329 53.2472 9.43027C53.5411 9.57725 53.7511 9.76621 53.884 9.98318C54.017 10.2001 54.08 10.4521 54.08 10.7251C54.08 11.047 53.989 11.341 53.8141 11.6069C53.6391 11.8799 53.3871 12.0828 53.0722 12.2228C52.7572 12.3628 52.3513 12.4328 51.8684 12.4328C51.0215 12.4328 50.4336 12.2718 50.1047 11.9429C49.7827 11.6139 49.6007 11.201 49.5518 10.6971Z" fill="#BEBEBE"/>
<path d="M54.4717 10.6971L55.9414 10.6061C55.9764 10.844 56.0394 11.026 56.1374 11.152C56.2984 11.355 56.5223 11.4529 56.8163 11.4529C57.0333 11.4529 57.2082 11.4039 57.3272 11.299C57.4462 11.194 57.5092 11.075 57.5092 10.942C57.5092 10.816 57.4532 10.6971 57.3412 10.5921C57.2292 10.4871 56.9633 10.3961 56.5503 10.3051C55.8714 10.1512 55.3955 9.94818 55.1016 9.69622C54.8146 9.44427 54.6676 9.12232 54.6676 8.73038C54.6676 8.47143 54.7446 8.23347 54.8916 8.0025C55.0386 7.77154 55.2625 7.59657 55.5635 7.46359C55.8644 7.33061 56.2704 7.26762 56.7883 7.26762C57.4252 7.26762 57.9151 7.3866 58.2441 7.62457C58.58 7.86253 58.776 8.24046 58.839 8.75838L57.3832 8.84237C57.3412 8.6184 57.2642 8.45743 57.1382 8.35245C57.0123 8.24746 56.8443 8.19847 56.6273 8.19847C56.4454 8.19847 56.3124 8.23347 56.2214 8.31045C56.1304 8.38744 56.0884 8.47843 56.0884 8.59041C56.0884 8.66739 56.1234 8.74438 56.2004 8.80737C56.2704 8.87036 56.4454 8.93335 56.7183 8.98934C57.3902 9.13632 57.8731 9.28329 58.1671 9.43027C58.461 9.57725 58.671 9.76621 58.804 9.98318C58.9369 10.2001 58.9999 10.4521 58.9999 10.7251C58.9999 11.047 58.9089 11.341 58.734 11.6069C58.559 11.8799 58.307 12.0828 57.9921 12.2228C57.6771 12.3628 57.2712 12.4328 56.7883 12.4328C55.9414 12.4328 55.3535 12.2718 55.0246 11.9429C54.6956 11.6139 54.5137 11.201 54.4717 10.6971Z" fill="#BEBEBE"/>
</svg>
