<svg width="75" height="25" viewBox="0 0 75 25" fill="none" xmlns="http://www.w3.org/2000/svg">
<g clip-path="url(#clip0)">
<path d="M60.077 9.16539V9.68913C59.5398 9.24809 58.8648 9 58.1622 9C56.4265 9 55.0077 10.5161 55.0077 12.3767C55.0077 14.2374 56.4128 15.7534 58.1622 15.7534C58.8648 15.7534 59.5398 15.5054 60.077 15.0643V15.6432H61.5235V9.16539H60.077ZM58.3275 14.4855C57.2806 14.4855 56.4265 13.5482 56.4265 12.3767C56.4265 11.2052 57.2806 10.2818 58.3275 10.2818C59.3745 10.2818 60.2286 11.219 60.2286 12.3905C60.2286 13.562 59.3745 14.4855 58.3275 14.4855ZM51.0403 9C50.3378 9 49.649 9.24809 49.1117 9.71669V9.16539H47.6515V18H49.098V15.0505C49.6352 15.5054 50.324 15.7534 51.0265 15.7672C52.7622 15.7672 54.1811 14.2511 54.1811 12.3905C54.1811 10.5299 52.7898 9 51.0403 9ZM50.875 14.4855C49.8281 14.4855 48.974 13.5482 48.974 12.3767C48.974 11.2052 49.8281 10.268 50.875 10.268C51.9219 10.268 52.776 11.2052 52.776 12.3767C52.776 13.5482 51.9219 14.4855 50.875 14.4855ZM67.6811 9.16539L65.8214 13.5758L63.8378 9.16539H62.4051L65.1327 15.2297L63.9617 18H65.3806L69.1 9.16539H67.6811V9.16539ZM38.4495 10.0613L38.5184 14.3338H38.4908L37.2372 10.0613H35.2122V15.4502H36.5485L36.4796 11.026H36.5071L37.8571 15.4502H39.7995V10.0613H38.4495ZM12.827 10.0613L11.8214 15.5054H13.2954L14.0393 10.5574H14.0668L14.7969 15.5054H16.2571L15.2515 10.0613H12.827ZM21.051 10.0613L20.376 14.2236H20.3485L19.6872 10.0613H17.4556L17.3316 15.5054H18.6954L18.723 10.6126H18.7505L19.6735 15.5054H21.051L21.9602 10.6126H21.9878L22.0153 15.5054H23.3791L23.2551 10.0613H21.051V10.0613ZM9.53469 13.9617C9.57602 14.0995 9.57602 14.2374 9.54847 14.3752C9.50714 14.5544 9.38316 14.7335 9.01122 14.7335C8.66684 14.7335 8.4602 14.5406 8.4602 14.2374V13.6998H7V14.1133C7 15.3262 7.95051 15.6983 8.98367 15.6983C9.97551 15.6983 10.7745 15.3675 10.9122 14.4579C10.9673 14.1547 10.9673 13.8652 10.9122 13.562C10.6781 12.4181 8.61173 12.0873 8.4602 11.4395C8.44643 11.343 8.44643 11.2466 8.4602 11.1501C8.50153 10.9709 8.61173 10.7779 8.95612 10.7779C9.21786 10.7504 9.43827 10.9433 9.46582 11.1914C9.46582 11.219 9.46582 11.2466 9.46582 11.2741V11.6049H10.8296V11.219C10.8296 10.0337 9.76888 9.84074 8.99745 9.84074C8.03316 9.84074 7.23418 10.1577 7.09643 11.0536C7.04133 11.3017 7.04133 11.5498 7.09643 11.7979C7.31684 12.9418 9.24541 13.2588 9.53469 13.9617ZM27.2224 13.9617C27.2638 14.0858 27.2638 14.2236 27.2362 14.3614C27.1949 14.5406 27.0709 14.7198 26.7128 14.7198C26.3821 14.7198 26.1755 14.5268 26.1755 14.2374V13.7136H24.7291V14.1271C24.7291 15.3262 25.6796 15.6845 26.6852 15.6845C27.6633 15.6845 28.4622 15.3538 28.5862 14.4579C28.6413 14.1685 28.6413 13.8652 28.5862 13.5758C28.352 12.4594 26.2995 12.1149 26.1617 11.4809C26.148 11.3844 26.148 11.3017 26.1617 11.2052C26.2031 11.026 26.3133 10.8469 26.6577 10.8469C26.9056 10.8193 27.1398 11.0123 27.1536 11.2603C27.1536 11.2879 27.1536 11.3017 27.1536 11.3292V11.66H28.4898V11.2741C28.4898 10.1026 27.4429 9.90965 26.6714 9.90965C25.7071 9.90965 24.9357 10.2266 24.7842 11.1087C24.7429 11.343 24.7429 11.5911 24.798 11.8392C25.0321 12.9418 26.9469 13.2588 27.2224 13.9617ZM31.7959 14.6784C32.0439 14.706 32.2643 14.5268 32.3194 14.2925C32.3332 14.2236 32.3332 14.1547 32.3332 14.0858V10.0613H33.7107V13.9617C33.7107 14.0582 33.6969 14.2649 33.6969 14.3201C33.6005 15.34 32.8015 15.6708 31.7959 15.6708C30.7903 15.6708 29.9913 15.34 29.8949 14.3201C29.8949 14.2649 29.8811 14.0582 29.8811 13.9617V10.0613H31.2587V14.0858C31.2587 14.1547 31.2587 14.2236 31.2724 14.2925C31.3275 14.5406 31.548 14.706 31.7959 14.6784ZM43.1469 14.6233C43.5464 14.6233 43.6842 14.3752 43.698 14.2374C43.7117 14.1685 43.7117 14.0995 43.7117 14.0306V13.245H43.1607V12.4456H45.0893V13.9066C45.0893 14.0031 45.0893 14.0858 45.0755 14.2649C44.9929 15.2573 44.125 15.6156 43.1607 15.6156C42.1964 15.6156 41.3423 15.2573 41.2459 14.2649C41.2321 14.0858 41.2321 14.0031 41.2321 13.9066V11.6049C41.2321 11.4809 41.2459 11.3706 41.2597 11.2466C41.3837 10.2266 42.2102 9.89587 43.1745 9.89587C44.1388 9.89587 44.9791 10.2129 45.0893 11.2466C45.1031 11.3706 45.1031 11.4809 45.1031 11.6049V11.7841H43.7255V11.4809C43.7255 11.4119 43.7255 11.343 43.7117 11.2741C43.6842 11.1501 43.5878 10.8744 43.1607 10.8744C42.899 10.8469 42.6786 11.026 42.6235 11.2741C42.6097 11.3568 42.5959 11.4395 42.5959 11.536V14.0306C42.5959 14.0995 42.5959 14.1685 42.6097 14.2374C42.6097 14.3752 42.7474 14.6233 43.1469 14.6233Z" fill="#BEBEBE"/>
</g>
<defs>
<clipPath id="clip0">
<rect width="62.1" height="9" fill="white" transform="translate(7 9)"/>
</clipPath>
</defs>
</svg>
