<svg width="75" height="25" viewBox="0 0 75 25" fill="none" xmlns="http://www.w3.org/2000/svg">
<g clip-path="url(#clip0)">
<path fill-rule="evenodd" clip-rule="evenodd" d="M27 22.9936H47.9998V12.5001H27V22.9936ZM31.8922 18.3155C32.03 18.3969 32.2455 18.4675 32.468 18.4675C32.7435 18.4675 32.899 18.3367 32.899 18.1424C32.899 17.9622 32.7789 17.8563 32.4786 17.7468C32.0829 17.6089 31.8321 17.397 31.8321 17.0578C31.8321 16.6656 32.1571 16.3725 32.6765 16.3725C32.9343 16.3725 33.1215 16.429 33.2452 16.489L33.1429 16.8423C33.0545 16.7964 32.8884 16.7293 32.6659 16.7293C32.3903 16.7293 32.2737 16.8741 32.2737 17.0154C32.2737 17.1992 32.4115 17.284 32.7294 17.404C33.1429 17.563 33.3407 17.7715 33.3407 18.1106C33.3407 18.4957 33.0509 18.8243 32.4398 18.8243C32.1853 18.8243 31.9239 18.7537 31.7932 18.676L31.8922 18.3155ZM34.1323 17.7326H35.0297V17.3793H34.1323V16.7646H35.0827V16.4078H33.6979V18.789H35.1357V18.4322H34.1323V17.7326ZM37.1887 18.7183C37.0863 18.7678 36.8601 18.8243 36.5705 18.8243C35.8145 18.8243 35.3551 18.3508 35.3551 17.6267C35.3551 16.8423 35.9027 16.3725 36.6305 16.3725C36.9167 16.3725 37.1181 16.429 37.2063 16.4749L37.1146 16.8211C37.0015 16.7717 36.8425 16.7293 36.6482 16.7293C36.1642 16.7293 35.8145 17.0331 35.8145 17.6054C35.8145 18.1283 36.1182 18.4604 36.6446 18.4604C36.8177 18.4604 37.0015 18.4251 37.1181 18.3755L37.1887 18.7183ZM37.9557 17.7962V16.4078H37.5212V17.7715C37.5212 18.5205 37.878 18.8278 38.4292 18.8278C39.0015 18.8278 39.3795 18.5028 39.3795 17.7679V16.4078H38.9449V17.7962C38.9449 18.2626 38.7576 18.478 38.4433 18.478C38.15 18.478 37.9557 18.2626 37.9557 17.7962ZM40.2735 17.4924H40.5314C40.8248 17.4924 41.005 17.337 41.005 17.1003C41.005 16.8423 40.8248 16.7187 40.5421 16.7187C40.4042 16.7187 40.316 16.7293 40.2735 16.74V17.4924ZM39.8426 16.4431C40.0085 16.4113 40.2489 16.3902 40.4997 16.3902C40.8424 16.3902 41.0721 16.4466 41.2345 16.581C41.3651 16.6905 41.4394 16.8564 41.4394 17.0615C41.4394 17.3687 41.231 17.5771 41.005 17.655V17.6655C41.1779 17.7291 41.2805 17.8951 41.337 18.1247C41.3546 18.192 41.3715 18.2583 41.3877 18.3215L41.3878 18.3219C41.4427 18.5373 41.4887 18.718 41.5242 18.789H41.0791C41.0437 18.7183 40.9836 18.524 40.92 18.2273C40.8494 17.9163 40.7399 17.8175 40.4927 17.8103H40.2735V18.789H39.8426V16.4431ZM42.2524 17.7326H43.1498V17.3793H42.2524V16.7646H43.2027V16.4078H41.8179V18.789H43.2557V18.4322H42.2524V17.7326Z" fill="#BFBEBE"/>
<path fill-rule="evenodd" clip-rule="evenodd" d="M37.0453 4.93607L36.0367 9.65174H34.8167L35.8254 4.93607H37.0453ZM42.1778 7.98107L42.8199 6.21018L43.1894 7.98107H42.1778ZM43.5394 9.65174H44.6675L43.682 4.93607H42.6414C42.4069 4.93607 42.2092 5.07204 42.1217 5.28173L40.2911 9.65174H41.5724L41.8267 8.94739H43.3917L43.5394 9.65174ZM40.3547 8.11216C40.36 6.86776 38.6343 6.79871 38.6459 6.24274C38.6496 6.07368 38.8107 5.8937 39.1631 5.84766C39.3378 5.82518 39.8199 5.80704 40.3663 6.05873L40.58 5.05836C40.2865 4.9522 39.9089 4.84995 39.4389 4.84995C38.2329 4.84995 37.3845 5.49056 37.3777 6.40862C37.37 7.08751 37.9837 7.46615 38.4452 7.69216C38.921 7.92327 39.0804 8.07154 39.0781 8.27794C39.0748 8.59432 38.6987 8.73442 38.3485 8.73973C37.7348 8.74927 37.3791 8.57385 37.0956 8.4417L36.8741 9.47547C37.1597 9.60613 37.6857 9.71983 38.2304 9.72566C39.5126 9.72566 40.3509 9.09259 40.3547 8.11216ZM35.3021 4.93607L33.3255 9.65174H32.0361L31.0633 5.88829C31.0043 5.65686 30.9529 5.5718 30.7735 5.47401C30.4802 5.31471 29.9959 5.1657 29.5701 5.073L29.5989 4.93607H31.6747C31.9391 4.93607 32.177 5.11203 32.2376 5.41663L32.7515 8.14557L34.0205 4.93607H35.3021Z" fill="#BFBEBE"/>
</g>
<defs>
<clipPath id="clip0">
<rect width="75" height="25" fill="white"/>
</clipPath>
</defs>
</svg>
